<svg width="80" height="80" viewBox="0 0 80 80" fill="none" xmlns="http://www.w3.org/2000/svg">
<rect x="12" y="34" width="11" height="11" rx="1" stroke="url(#paint0_linear)" stroke-width="2"/>
<rect x="12" y="52" width="11" height="11" rx="1" stroke="url(#paint1_linear)" stroke-width="2"/>
<path d="M73.3333 8H66.6667V5.33333C66.6667 3.91885 66.1048 2.56229 65.1046 1.5621C64.1044 0.561903 62.7478 0 61.3333 0C59.9188 0 58.5623 0.561903 57.5621 1.5621C56.5619 2.56229 56 3.91885 56 5.33333V8H45.3333V5.33333C45.3333 3.91885 44.7714 2.56229 43.7712 1.5621C42.771 0.561903 41.4145 0 40 0C38.5855 0 37.229 0.561903 36.2288 1.5621C35.2286 2.56229 34.6667 3.91885 34.6667 5.33333V8H24V5.33333C24 3.91885 23.4381 2.56229 22.4379 1.5621C21.4377 0.561903 20.0812 0 18.6667 0C17.2522 0 15.8956 0.561903 14.8954 1.5621C13.8952 2.56229 13.3333 3.91885 13.3333 5.33333V8H6.66667C4.89856 8 3.20286 8.70238 1.95262 9.95262C0.702379 11.2029 0 12.8986 0 14.6667V68C0 69.7681 0.702379 71.4638 1.95262 72.714C3.20286 73.9643 4.89856 74.6667 6.66667 74.6667H31.6464C32 74.6667 32.3391 74.5262 32.5892 74.2761C32.8392 74.0261 32.9797 73.687 32.9797 73.3333C32.9797 72.9797 32.8392 72.6406 32.5892 72.3905C32.3391 72.1405 32 72 31.6464 72H6.66667C5.60677 71.9968 4.5912 71.5744 3.84174 70.8249C3.09228 70.0755 2.66983 69.0599 2.66667 68V26.6667H77.3333V37C77.3333 37.3536 77.4738 37.6928 77.7239 37.9428C77.9739 38.1929 78.313 38.3333 78.6667 38.3333C79.0203 38.3333 79.3594 38.1929 79.6095 37.9428C79.8595 37.6928 80 37.3536 80 37V14.6667C80 12.8986 79.2976 11.2029 78.0474 9.95262C76.7971 8.70238 75.1014 8 73.3333 8ZM58.6667 5.33333C58.6667 4.62609 58.9476 3.94781 59.4477 3.44771C59.9478 2.94762 60.6261 2.66667 61.3333 2.66667C62.0406 2.66667 62.7189 2.94762 63.219 3.44771C63.7191 3.94781 64 4.62609 64 5.33333V13.3333C64 14.0406 63.7191 14.7189 63.219 15.219C62.7189 15.719 62.0406 16 61.3333 16C60.6261 16 59.9478 15.719 59.4477 15.219C58.9476 14.7189 58.6667 14.0406 58.6667 13.3333V5.33333ZM37.3333 5.33333C37.3333 4.62609 37.6143 3.94781 38.1144 3.44771C38.6145 2.94762 39.2928 2.66667 40 2.66667C40.7072 2.66667 41.3855 2.94762 41.8856 3.44771C42.3857 3.94781 42.6667 4.62609 42.6667 5.33333V13.3333C42.6667 14.0406 42.3857 14.7189 41.8856 15.219C41.3855 15.719 40.7072 16 40 16C39.2928 16 38.6145 15.719 38.1144 15.219C37.6143 14.7189 37.3333 14.0406 37.3333 13.3333V5.33333ZM16 5.33333C16 4.62609 16.281 3.94781 16.781 3.44771C17.2811 2.94762 17.9594 2.66667 18.6667 2.66667C19.3739 2.66667 20.0522 2.94762 20.5523 3.44771C21.0524 3.94781 21.3333 4.62609 21.3333 5.33333V13.3333C21.3333 14.0406 21.0524 14.7189 20.5523 15.219C20.0522 15.719 19.3739 16 18.6667 16C17.9594 16 17.2811 15.719 16.781 15.219C16.281 14.7189 16 14.0406 16 13.3333V5.33333ZM77.3333 24H2.66667V14.6667C2.66983 13.6068 3.09228 12.5912 3.84174 11.8417C4.5912 11.0923 5.60677 10.6698 6.66667 10.6667H13.3333V13.3333C13.3333 14.7478 13.8952 16.1044 14.8954 17.1046C15.8956 18.1048 17.2522 18.6667 18.6667 18.6667C20.0812 18.6667 21.4377 18.1048 22.4379 17.1046C23.4381 16.1044 24 14.7478 24 13.3333V10.6667H34.6667V13.3333C34.6667 14.7478 35.2286 16.1044 36.2288 17.1046C37.229 18.1048 38.5855 18.6667 40 18.6667C41.4145 18.6667 42.771 18.1048 43.7712 17.1046C44.7714 16.1044 45.3333 14.7478 45.3333 13.3333V10.6667H56V13.3333C56 14.7478 56.5619 16.1044 57.5621 17.1046C58.5623 18.1048 59.9188 18.6667 61.3333 18.6667C62.7478 18.6667 64.1044 18.1048 65.1046 17.1046C66.1048 16.1044 66.6667 14.7478 66.6667 13.3333V10.6667H73.3333C74.3932 10.6698 75.4088 11.0923 76.1583 11.8417C76.9077 12.5912 77.3302 13.6068 77.3333 14.6667V24Z" fill="url(#paint2_linear)"/>
<path d="M56 32C51.2533 32 46.6131 33.4076 42.6663 36.0447C38.7195 38.6819 35.6434 42.4302 33.8269 46.8156C32.0104 51.201 31.5351 56.0266 32.4612 60.6822C33.3872 65.3377 35.673 69.6141 39.0295 72.9706C42.3859 76.327 46.6623 78.6128 51.3178 79.5388C55.9734 80.4649 60.799 79.9896 65.1844 78.1731C69.5698 76.3566 73.3181 73.2805 75.9553 69.3337C78.5924 65.3869 80 60.7467 80 56C79.9927 49.6371 77.4618 43.5368 72.9625 39.0375C68.4632 34.5382 62.363 32.0073 56 32V32ZM56 76.3077C51.9835 76.3077 48.0572 75.1167 44.7177 72.8852C41.3781 70.6538 38.7752 67.4822 37.2382 63.7714C35.7011 60.0607 35.2989 55.9775 36.0825 52.0382C36.8661 48.0989 38.8002 44.4804 41.6403 41.6403C44.4804 38.8002 48.0989 36.8661 52.0382 36.0825C55.9775 35.2989 60.0607 35.7011 63.7714 37.2381C67.4822 38.7752 70.6538 41.3781 72.8852 44.7177C75.1167 48.0572 76.3077 51.9835 76.3077 56C76.3013 61.384 74.1598 66.5456 70.3527 70.3527C66.5456 74.1597 61.384 76.3013 56 76.3077Z" fill="url(#paint3_linear)"/>
<path d="M66.8878 48.5093L52.604 62.6207L46.1122 56.2054C45.7659 55.875 45.302 55.6921 44.8205 55.6962C44.339 55.7004 43.8784 55.8912 43.5379 56.2275C43.1974 56.5639 43.0043 57.019 43.0001 57.4947C42.9959 57.9704 43.181 58.4287 43.5155 58.7708L51.3057 66.4688C51.65 66.8089 52.1171 67 52.604 67C53.091 67 53.558 66.8089 53.9024 66.4688L69.4845 51.0747C69.819 50.7325 70.0041 50.2742 69.9999 49.7985C69.9957 49.3228 69.8026 48.8678 69.4621 48.5314C69.1216 48.195 68.661 48.0042 68.1795 48.0001C67.698 47.9959 67.2341 48.1788 66.8878 48.5093Z" fill="url(#paint4_linear)"/>
<defs>
<linearGradient id="paint0_linear" x1="11" y1="40.6818" x2="24.0005" y2="40.6313" gradientUnits="userSpaceOnUse">
<stop stop-color="#BC913E"/>
<stop offset="0.523276" stop-color="#ECEBA2"/>
<stop offset="1" stop-color="#BC913E"/>
</linearGradient>
<linearGradient id="paint1_linear" x1="11" y1="58.6818" x2="24.0005" y2="58.6313" gradientUnits="userSpaceOnUse">
<stop stop-color="#BC913E"/>
<stop offset="0.523276" stop-color="#ECEBA2"/>
<stop offset="1" stop-color="#BC913E"/>
</linearGradient>
<linearGradient id="paint2_linear" x1="1.87436e-07" y1="44.1212" x2="80.0028" y2="43.7884" gradientUnits="userSpaceOnUse">
<stop stop-color="#BC913E"/>
<stop offset="0.523276" stop-color="#ECEBA2"/>
<stop offset="1" stop-color="#BC913E"/>
</linearGradient>
<linearGradient id="paint3_linear" x1="32" y1="60.3636" x2="80.0018" y2="60.1773" gradientUnits="userSpaceOnUse">
<stop stop-color="#BC913E"/>
<stop offset="0.523276" stop-color="#ECEBA2"/>
<stop offset="1" stop-color="#BC913E"/>
</linearGradient>
<linearGradient id="paint4_linear" x1="43" y1="59.2273" x2="70.0006" y2="59.0783" gradientUnits="userSpaceOnUse">
<stop stop-color="#BC913E"/>
<stop offset="0.523276" stop-color="#ECEBA2"/>
<stop offset="1" stop-color="#BC913E"/>
</linearGradient>
</defs>
</svg>
