<svg width="96" height="82" viewBox="0 0 96 82" fill="none" xmlns="http://www.w3.org/2000/svg">
<path d="M81.3994 36.7522C81.3994 37.1646 81.5632 37.5601 81.8548 37.8517C82.1464 38.1433 82.5419 38.3071 82.9543 38.3071C83.3667 38.3071 83.7622 38.1433 84.0538 37.8517C84.3454 37.5601 84.5092 37.1646 84.5092 36.7522C84.5092 35.9275 84.8369 35.1365 85.4201 34.5533C86.0033 33.9701 86.7943 33.6424 87.619 33.6424C88.0314 33.6424 88.4269 33.4786 88.7185 33.187C89.0101 32.8954 89.1739 32.4999 89.1739 32.0875V13.4286C89.1739 13.0162 89.0101 12.6207 88.7185 12.3291C88.4269 12.0375 88.0314 11.8737 87.619 11.8737C86.7943 11.8737 86.0033 11.5461 85.4201 10.9629C84.8369 10.3797 84.5092 9.58867 84.5092 8.76389C84.5092 8.3515 84.3454 7.95601 84.0538 7.66441C83.7622 7.3728 83.3667 7.20898 82.9543 7.20898H39.4169C39.0045 7.20898 38.609 7.3728 38.3174 7.66441C38.0258 7.95601 37.862 8.3515 37.862 8.76389C37.862 9.58867 37.5343 10.3797 36.9511 10.9629C36.3679 11.5461 35.5769 11.8737 34.7522 11.8737C34.3398 11.8737 33.9443 12.0375 33.6527 12.3291C33.3611 12.6207 33.1973 13.0162 33.1973 13.4286V32.0875C33.1973 32.4999 33.3611 32.8954 33.6527 33.187C33.9443 33.4786 34.3398 33.6424 34.7522 33.6424C35.1646 33.6424 35.5601 33.4786 35.8517 33.187C36.1433 32.8954 36.3071 32.4999 36.3071 32.0875V14.7876C37.3821 14.5076 38.363 13.9458 39.1486 13.1603C39.9341 12.3747 40.4959 11.3938 40.7759 10.3188H81.5953C81.8754 11.3938 82.4371 12.3747 83.2227 13.1603C84.0082 13.9458 84.9891 14.5076 86.0641 14.7876V30.7285C84.73 31.0755 83.5485 31.8549 82.7044 32.9448C81.8604 34.0347 81.4014 35.3737 81.3994 36.7522V36.7522Z" fill="url(#paint0_linear)"/>
<path d="M79.8447 21.2031H76.7348C76.3225 21.2031 75.927 21.3669 75.6354 21.6585C75.3438 21.9501 75.1799 22.3456 75.1799 22.758C75.1799 23.1704 75.3438 23.5659 75.6354 23.8575C75.927 24.1491 76.3225 24.3129 76.7348 24.3129H79.8447C80.257 24.3129 80.6525 24.1491 80.9441 23.8575C81.2357 23.5659 81.3996 23.1704 81.3996 22.758C81.3996 22.3456 81.2357 21.9501 80.9441 21.6585C80.6525 21.3669 80.257 21.2031 79.8447 21.2031Z" fill="url(#paint1_linear)"/>
<path d="M42.5266 21.2031C42.1142 21.2031 41.7187 21.3669 41.4271 21.6585C41.1355 21.9501 40.9717 22.3456 40.9717 22.758C40.9717 23.1704 41.1355 23.5659 41.4271 23.8575C41.7187 24.1491 42.1142 24.3129 42.5266 24.3129H45.6364C46.0488 24.3129 46.4443 24.1491 46.7359 23.8575C47.0275 23.5659 47.1913 23.1704 47.1913 22.758C47.1913 22.3456 47.0275 21.9501 46.7359 21.6585C46.4443 21.3669 46.0488 21.2031 45.6364 21.2031H42.5266Z" fill="url(#paint2_linear)"/>
<path d="M51.8562 22.7579C51.8562 24.6031 52.4034 26.4069 53.4285 27.9411C54.4536 29.4753 55.9107 30.6711 57.6154 31.3772C59.3202 32.0833 61.196 32.2681 63.0057 31.9081C64.8155 31.5481 66.4778 30.6596 67.7826 29.3548C69.0873 28.0501 69.9759 26.3877 70.3358 24.578C70.6958 22.7683 70.5111 20.8924 69.8049 19.1877C69.0988 17.483 67.903 16.0259 66.3688 15.0008C64.8346 13.9756 63.0308 13.4285 61.1856 13.4285C58.7121 13.4309 56.3405 14.4147 54.5915 16.1637C52.8424 17.9128 51.8587 20.2843 51.8562 22.7579V22.7579ZM67.4053 22.7579C67.4053 23.988 67.0405 25.1905 66.3571 26.2134C65.6737 27.2362 64.7023 28.0334 63.5658 28.5041C62.4293 28.9749 61.1787 29.098 59.9723 28.858C58.7658 28.6181 57.6575 28.0257 56.7877 27.1559C55.9179 26.286 55.3255 25.1778 55.0855 23.9713C54.8455 22.7648 54.9687 21.5143 55.4395 20.3778C55.9102 19.2413 56.7074 18.2699 57.7302 17.5865C58.753 16.9031 59.9555 16.5383 61.1856 16.5383C62.8352 16.5383 64.4172 17.1936 65.5836 18.36C66.75 19.5264 67.4053 21.1084 67.4053 22.7579Z" fill="url(#paint3_linear)"/>
<path d="M60.6414 38.4626H7.77454C5.71336 38.4651 3.73731 39.285 2.27984 40.7425C0.822363 42.2 0.00246897 44.176 0 46.2372V74.2255C0.00246897 76.2867 0.822363 78.2627 2.27984 79.7202C3.73731 81.1777 5.71336 81.9976 7.77454 82.0001H60.6414C62.7026 81.9976 64.6786 81.1777 66.1361 79.7202C67.5936 78.2627 68.4135 76.2867 68.4159 74.2255V46.2372C68.4135 44.176 67.5936 42.2 66.1361 40.7425C64.6786 39.285 62.7026 38.4651 60.6414 38.4626V38.4626ZM65.3061 74.2255C65.3061 75.4627 64.8147 76.6492 63.9399 77.524C63.065 78.3988 61.8786 78.8902 60.6414 78.8902H7.77454C6.53738 78.8902 5.35089 78.3988 4.47608 77.524C3.60128 76.6492 3.10982 75.4627 3.10982 74.2255V46.2372C3.10982 45 3.60128 43.8135 4.47608 42.9387C5.35089 42.0639 6.53738 41.5725 7.77454 41.5725H60.6414C61.8786 41.5725 63.065 42.0639 63.9399 42.9387C64.8147 43.8135 65.3061 45 65.3061 46.2372V74.2255Z" fill="url(#paint4_linear)"/>
<path d="M25.7082 59.6872C23.8765 59.6896 22.1013 60.2908 20.6804 61.39C19.5047 60.4828 18.0829 59.911 16.5795 59.7407C15.0761 59.5703 13.5527 59.8086 12.1859 60.4277C10.819 61.0468 9.66457 62.0215 8.85634 63.2389C8.04811 64.4563 7.61914 65.8665 7.61914 67.3062C7.61914 68.7459 8.04811 70.1561 8.85634 71.3735C9.66457 72.5909 10.819 73.5656 12.1859 74.1847C13.5527 74.8038 15.0761 75.042 16.5795 74.8717C18.0829 74.7014 19.5047 74.1295 20.6804 73.2224C21.677 73.9914 22.8532 74.5215 24.1101 74.768C25.3671 75.0146 26.6679 74.9705 27.9032 74.6394C29.1384 74.3082 30.272 73.6998 31.2084 72.8652C32.1448 72.0307 32.8567 70.9944 33.2841 69.8437C33.7116 68.693 33.8421 67.4615 33.6646 66.2528C33.4872 65.0442 33.007 63.8937 32.2645 62.8983C31.522 61.9029 30.5389 61.0916 29.398 60.5328C28.257 59.974 26.9916 59.684 25.7082 59.6872ZM15.6926 71.1157C14.9003 71.1157 14.1257 70.8923 13.4669 70.4737C12.8081 70.0551 12.2946 69.4601 11.9914 68.764C11.6881 68.0679 11.6088 67.302 11.7634 66.563C11.918 65.824 12.2995 65.1452 12.8598 64.6125C13.4201 64.0797 14.1339 63.7169 14.9111 63.5699C15.6882 63.4229 16.4937 63.4983 17.2257 63.7867C17.9578 64.075 18.5835 64.5633 19.0237 65.1897C19.4639 65.8162 19.6989 66.5527 19.6989 67.3062C19.6989 68.3165 19.2768 69.2855 18.5255 69.9999C17.7741 70.7144 16.7551 71.1157 15.6926 71.1157ZM25.7082 71.1157C24.7508 71.1181 23.8251 70.789 23.1042 70.19C23.5035 69.276 23.7091 68.296 23.7091 67.3062C23.7091 66.3164 23.5035 65.3364 23.1042 64.4224C23.8251 63.8234 24.7508 63.4943 25.7082 63.4967C26.7707 63.4967 27.7897 63.898 28.541 64.6125C29.2923 65.3269 29.7144 66.2958 29.7144 67.3062C29.7144 68.3165 29.2923 69.2855 28.541 69.9999C27.7897 70.7144 26.7707 71.1157 25.7082 71.1157V71.1157Z" fill="url(#paint5_linear)"/>
<path d="M43.5374 47.7142H46.8027V56.4217H43.5374V47.7142Z" fill="url(#paint6_linear)"/>
<path d="M50.0681 47.7142H53.3334V56.4217H50.0681V47.7142Z" fill="url(#paint7_linear)"/>
<path d="M37.0068 47.7142H40.2721V56.4217H37.0068V47.7142Z" fill="url(#paint8_linear)"/>
<path d="M55.5103 47.7142H58.7756V56.4217H55.5103V47.7142Z" fill="url(#paint9_linear)"/>
<path d="M28.2993 33.5646V2.5C28.2993 2.22386 28.5232 2 28.7993 2H93.6497C93.9258 2 94.1497 2.22386 94.1497 2.5V42.3163C94.1497 42.5925 93.9258 42.8163 93.6497 42.8163H72.9252" stroke="url(#paint10_linear)" stroke-width="2.5"/>
<defs>
<linearGradient id="paint0_linear" x1="33.1973" y1="25.5852" x2="89.1741" y2="25.194" gradientUnits="userSpaceOnUse">
<stop stop-color="#BC913E"/>
<stop offset="0.523276" stop-color="#ECEBA2"/>
<stop offset="1" stop-color="#BC913E"/>
</linearGradient>
<linearGradient id="paint1_linear" x1="75.1799" y1="23.0407" x2="81.3995" y2="22.9924" gradientUnits="userSpaceOnUse">
<stop stop-color="#BC913E"/>
<stop offset="0.523276" stop-color="#ECEBA2"/>
<stop offset="1" stop-color="#BC913E"/>
</linearGradient>
<linearGradient id="paint2_linear" x1="40.9717" y1="23.0407" x2="47.1913" y2="22.9924" gradientUnits="userSpaceOnUse">
<stop stop-color="#BC913E"/>
<stop offset="0.523276" stop-color="#ECEBA2"/>
<stop offset="1" stop-color="#BC913E"/>
</linearGradient>
<linearGradient id="paint3_linear" x1="51.8562" y1="24.4542" x2="70.5158" y2="24.3817" gradientUnits="userSpaceOnUse">
<stop stop-color="#BC913E"/>
<stop offset="0.523276" stop-color="#ECEBA2"/>
<stop offset="1" stop-color="#BC913E"/>
</linearGradient>
<linearGradient id="paint4_linear" x1="1.60295e-07" y1="64.1893" x2="68.4169" y2="63.7719" gradientUnits="userSpaceOnUse">
<stop stop-color="#BC913E"/>
<stop offset="0.523276" stop-color="#ECEBA2"/>
<stop offset="1" stop-color="#BC913E"/>
</linearGradient>
<linearGradient id="paint5_linear" x1="7.61914" y1="68.6915" x2="33.7418" y2="68.5176" gradientUnits="userSpaceOnUse">
<stop stop-color="#BC913E"/>
<stop offset="0.523276" stop-color="#ECEBA2"/>
<stop offset="1" stop-color="#BC913E"/>
</linearGradient>
<linearGradient id="paint6_linear" x1="43.5374" y1="52.8596" x2="46.8028" y2="52.8548" gradientUnits="userSpaceOnUse">
<stop stop-color="#BC913E"/>
<stop offset="0.523276" stop-color="#ECEBA2"/>
<stop offset="1" stop-color="#BC913E"/>
</linearGradient>
<linearGradient id="paint7_linear" x1="50.0681" y1="52.8596" x2="53.3336" y2="52.8548" gradientUnits="userSpaceOnUse">
<stop stop-color="#BC913E"/>
<stop offset="0.523276" stop-color="#ECEBA2"/>
<stop offset="1" stop-color="#BC913E"/>
</linearGradient>
<linearGradient id="paint8_linear" x1="37.0068" y1="52.8596" x2="40.2723" y2="52.8548" gradientUnits="userSpaceOnUse">
<stop stop-color="#BC913E"/>
<stop offset="0.523276" stop-color="#ECEBA2"/>
<stop offset="1" stop-color="#BC913E"/>
</linearGradient>
<linearGradient id="paint9_linear" x1="55.5103" y1="52.8596" x2="58.7757" y2="52.8548" gradientUnits="userSpaceOnUse">
<stop stop-color="#BC913E"/>
<stop offset="0.523276" stop-color="#ECEBA2"/>
<stop offset="1" stop-color="#BC913E"/>
</linearGradient>
<linearGradient id="paint10_linear" x1="28.2993" y1="26.1187" x2="94.1505" y2="25.7062" gradientUnits="userSpaceOnUse">
<stop stop-color="#BC913E"/>
<stop offset="0.523276" stop-color="#ECEBA2"/>
<stop offset="1" stop-color="#BC913E"/>
</linearGradient>
</defs>
</svg>
