<svg width="44" height="45" viewBox="0 0 44 45" fill="none" xmlns="http://www.w3.org/2000/svg">
<path fill-rule="evenodd" clip-rule="evenodd" d="M37.5797 44.9999H6.41876C1.64923 44.9999 -1.44452 39.9792 0.686726 35.715L16.2672 4.54191C18.6305 -0.186497 25.3766 -0.186497 27.7399 4.54191L43.3117 35.715C45.443 39.9792 42.3492 44.9999 37.5797 44.9999ZM41.7748 36.7608L26.1943 5.58769C25.3865 3.96284 23.8138 2.99996 22.0005 2.99996C20.1873 2.99996 18.6232 3.97144 17.8068 5.58769L2.22632 36.7608C1.49585 38.2223 1.5732 39.9331 2.43257 41.3259C3.29195 42.7186 4.78726 43.5525 6.42007 43.5525H37.581C39.2138 43.5525 40.7091 42.7186 41.5685 41.3259C42.4279 39.9331 42.5052 38.2223 41.7748 36.7608ZM40.099 40.4146C39.5576 41.2915 38.6123 41.8159 37.581 41.8159H6.42007C5.38882 41.8159 4.44351 41.2915 3.9021 40.4146C3.3607 39.5377 3.30913 38.4544 3.7732 37.5345L19.3537 6.36143C19.8779 5.32118 20.8404 4.72798 22.0005 4.72798C23.1607 4.72798 24.1318 5.32118 24.6474 6.36143L40.2279 37.5345C40.6919 38.4544 40.6404 39.5377 40.099 40.4146ZM20.3418 34.5975C19.852 35.0188 19.6113 35.526 19.6113 36.1278C19.6113 36.7038 19.852 37.2111 20.3418 37.6409C20.8316 38.0708 21.4246 38.2857 22.1207 38.2857C22.7395 38.2857 23.2723 38.0708 23.7191 37.6409C24.166 37.2111 24.3895 36.7038 24.3895 36.1278C24.3895 35.526 24.166 35.0188 23.7191 34.5975C23.2723 34.1763 22.7395 33.97 22.1207 33.97C21.4246 33.97 20.8316 34.1763 20.3418 34.5975ZM20.4707 13.5776C20.0496 13.9129 19.8434 14.3857 19.8434 14.9961C19.8434 16.3106 19.8797 17.1401 19.958 18.9254C19.9939 19.744 20.0385 20.7636 20.0926 22.1231C20.1333 23.2644 20.1687 24.1993 20.1987 24.9924C20.2826 27.2104 20.3246 28.3194 20.3246 29.7316C20.3246 30.5827 20.9176 31.004 22.0949 31.004C22.4902 31.004 22.877 30.8922 23.2551 30.6687C23.6246 30.4451 23.8137 30.1271 23.8137 29.7316C23.8137 28.041 23.8339 26.7753 23.8863 23.4967C23.8931 23.074 23.9004 22.6179 23.9082 22.1231C23.9311 20.4746 23.9502 19.3252 23.9652 18.428C23.9895 16.9671 24.0027 16.1753 24.0027 14.9875C24.0027 14.4029 23.848 13.9387 23.5387 13.5948C23.2293 13.2509 22.748 13.079 22.0863 13.079C21.4246 13.079 20.8832 13.2423 20.4707 13.5776Z" fill="url(#paint0_linear)"/>
<defs>
<linearGradient id="paint0_linear" x1="0.000976666" y1="26.9981" x2="43.9991" y2="26.8273" gradientUnits="userSpaceOnUse">
<stop stop-color="#BC913E"/>
<stop offset="0.523276" stop-color="#ECEBA2"/>
<stop offset="1" stop-color="#BC913E"/>
</linearGradient>
</defs>
</svg>
