<svg width="80" height="80" viewBox="0 0 80 80" fill="none" xmlns="http://www.w3.org/2000/svg">
<path d="M42.5 53.716C46.8 52.822 50 49.718 50 46C50 41.588 45.515 38 40 38C37.2425 38 35 36.206 35 34C35 31.794 37.2425 30 40 30C42.7575 30 45 31.794 45 34H50C50 30.282 46.8 27.178 42.5 26.284V22H37.5V26.284C33.2 27.178 30 30.282 30 34C30 38.412 34.485 42 40 42C42.7575 42 45 43.794 45 46C45 48.206 42.7575 50 40 50C37.2425 50 35 48.206 35 46H30C30 49.718 33.2 52.822 37.5 53.716V58H42.5V53.716Z" fill="url(#paint0_linear)"/>
<path d="M40 2.58065C49.9961 2.58065 59.3923 6.47355 66.4594 13.5406C66.9432 14.0245 67.8 14.0245 68.2839 13.5406L70.9677 10.8568V20.6452H61.1794L63.7226 18.1019C64.2271 17.5974 64.2271 16.7819 63.7226 16.2774C57.3858 9.94064 48.9613 6.45161 40 6.45161V9.03226C47.84 9.03226 55.2361 11.9265 60.9665 17.209L57.1523 21.0232C56.7832 21.3923 56.6723 21.9471 56.8723 22.4297C57.0723 22.9123 57.5432 23.2258 58.0645 23.2258H72.2581C72.9703 23.2258 73.5484 22.649 73.5484 21.9355V7.74194C73.5484 7.22064 73.2335 6.74839 72.7523 6.54968C72.2671 6.3471 71.7148 6.45935 71.3458 6.82968L67.3574 10.8181C59.9187 3.83226 50.2542 0 40 0C17.9445 0 0 17.9432 0 40H2.58065C2.58065 19.3677 19.3665 2.58065 40 2.58065V2.58065Z" fill="url(#paint1_linear)"/>
<path d="M77.4194 40C77.4194 60.6323 60.6336 77.4194 40 77.4194C30.0039 77.4194 20.6078 73.5265 13.5407 66.4594C13.0568 65.9755 12.2 65.9755 11.7162 66.4594L9.03231 69.1432V59.3548H18.8207L16.2775 61.8981C15.7729 62.4026 15.7729 63.2181 16.2775 63.7226C22.6142 70.0594 31.0388 73.5484 40 73.5484V70.9677C32.16 70.9677 24.7639 68.0735 19.0336 62.791L22.8478 58.9768C23.2168 58.6077 23.3278 58.0529 23.1278 57.5703C22.9278 57.0877 22.4568 56.7742 21.9355 56.7742H7.74198C7.02972 56.7742 6.45166 57.351 6.45166 58.0645V72.2581C6.45166 72.7794 6.7665 73.2516 7.24779 73.4503C7.73037 73.6516 8.28521 73.5394 8.65424 73.1703L12.6426 69.1819C20.0813 76.1677 29.7459 80 40 80C62.0555 80 80 62.0568 80 40H77.4194Z" fill="url(#paint2_linear)"/>
<defs>
<linearGradient id="paint0_linear" x1="30" y1="43.2727" x2="50.0009" y2="43.2296" gradientUnits="userSpaceOnUse">
<stop stop-color="#BC913E"/>
<stop offset="0.523276" stop-color="#ECEBA2"/>
<stop offset="1" stop-color="#BC913E"/>
</linearGradient>
<linearGradient id="paint1_linear" x1="1.7232e-07" y1="23.6364" x2="73.5485" y2="23.1113" gradientUnits="userSpaceOnUse">
<stop stop-color="#BC913E"/>
<stop offset="0.523276" stop-color="#ECEBA2"/>
<stop offset="1" stop-color="#BC913E"/>
</linearGradient>
<linearGradient id="paint2_linear" x1="6.45166" y1="63.6364" x2="80.0001" y2="63.1113" gradientUnits="userSpaceOnUse">
<stop stop-color="#BC913E"/>
<stop offset="0.523276" stop-color="#ECEBA2"/>
<stop offset="1" stop-color="#BC913E"/>
</linearGradient>
</defs>
</svg>
