<svg width="88" height="74" viewBox="0 0 88 74" fill="none" xmlns="http://www.w3.org/2000/svg">
<path fill-rule="evenodd" clip-rule="evenodd" d="M42.5 3.60576L21.1 23.6101V38.2017C21.2516 38.2348 21.3878 38.2668 21.4994 38.2963C21.5456 38.3077 21.5916 38.3202 21.6374 38.3327C21.6599 38.3388 21.6823 38.3449 21.7047 38.3509C21.7179 38.3544 21.7312 38.3579 21.7444 38.3613C21.9189 38.406 22.0932 38.4512 22.2667 38.4994C22.3966 38.5355 22.5257 38.5735 22.655 38.6115L22.6637 38.614C22.8175 38.6596 22.9712 38.7056 23.1242 38.7539C23.2678 38.7991 23.4107 38.8456 23.5533 38.8932C23.6938 38.9401 23.8336 38.9882 23.9733 39.0375C24.1222 39.0899 24.2708 39.1433 24.4186 39.1985C24.5518 39.2483 24.6845 39.2998 24.817 39.3517C24.9664 39.4102 25.1156 39.469 25.264 39.5302C25.3828 39.5792 25.5008 39.6303 25.6188 39.6813L25.6191 39.6814L25.6604 39.6992L25.7211 39.7255C25.8452 39.7791 25.9692 39.8327 26.0924 39.8885C26.2086 39.9414 26.3239 39.9963 26.4392 40.0511L26.4395 40.0513L26.5123 40.0859L26.6141 40.1341C26.7119 40.1803 26.8097 40.2265 26.9067 40.2747C27.0508 40.3461 27.1933 40.4206 27.3359 40.4951L27.3952 40.5261C27.411 40.5343 27.4268 40.5425 27.4427 40.5507C27.4654 40.5624 27.4881 40.5741 27.5109 40.5858C27.5775 40.6199 27.644 40.6541 27.7098 40.6896C27.9768 40.8335 28.2414 40.9816 28.5036 41.1349C30.3637 42.223 32.3384 43.0442 34.4 43.5914V29.4156C34.4 28.2558 35.3402 27.3156 36.5 27.3156H48.5C49.6598 27.3156 50.6 28.2558 50.6 29.4156V45.6935C51.0312 45.7462 51.4174 45.8 51.5975 45.8415C55.01 46.5126 57.5908 49.3248 57.9385 52.8206L58.0372 53.8132L61.7741 54.0228L63.9 52.6V23.6101L42.5 3.60576ZM67.1 50.4585V26.5324L69.9237 29.0995L72.0763 26.7317L66.5763 21.7317L66.5703 21.7382C66.5272 21.6898 66.4818 21.6431 66.434 21.5985L43.934 0.565893C43.1269 -0.188632 41.8731 -0.18863 41.0659 0.565894L29.5999 11.2841V9.91565C29.5999 8.75585 28.6597 7.81565 27.4999 7.81565H19.9999C18.8401 7.81565 17.8999 8.75585 17.8999 9.91565V22.2151L11.9147 27.7399L14.0852 30.0912L17.9 26.5699V37.675C17.0121 37.5829 16.1183 37.5353 15.2215 37.5353H13.0888V36.788C13.0888 34.2791 11.0475 32.2378 8.53862 32.2378H4.5502C2.04128 32.2376 0 34.2787 0 36.7878V56.3186C0 57.0069 0.558031 57.5649 1.24636 57.5649C1.93469 57.5649 2.49272 57.0069 2.49272 56.3186V36.7878C2.49272 35.6533 3.41572 34.7303 4.5502 34.7303H8.53845C9.67293 34.7303 10.5959 35.6533 10.5959 36.7878V38.7815V64.3288V66.3029C10.5959 67.4374 9.67293 68.3604 8.53845 68.3604H4.5502C3.41572 68.3604 2.49272 67.4374 2.49272 66.3029V64.122C2.49272 63.4336 1.93469 62.8756 1.24636 62.8756C0.558031 62.8756 0 63.4336 0 64.122V66.3029C0 68.8118 2.04128 70.8531 4.5502 70.8531H8.53845C11.0474 70.8531 13.0887 68.812 13.0887 66.3029V66.1336L31.3413 73.0455C31.3751 73.0583 31.4094 73.0696 31.4441 73.0793C32.2377 73.3034 33.0309 73.4158 33.8141 73.4158C34.2377 73.4158 34.6585 73.3828 35.0749 73.317L61.8988 69.4504C61.9051 69.4495 61.9112 69.4485 61.9175 69.4475C64.1981 69.0834 66.3496 68.1192 68.1391 66.6597C68.1455 66.6545 68.1519 66.6492 68.1582 66.6438C68.1672 66.6362 68.1761 66.6284 68.1848 66.6205L85.5143 51.0345C87.5324 49.2429 87.9091 46.2094 86.3911 43.9783C84.7301 41.5374 81.3853 40.8914 78.937 42.5368L67.7934 49.9945L67.1 50.4585ZM67.0372 53.5H67.1V53.458L67.2434 53.362L80.3253 44.607C81.6414 43.7223 83.4379 44.0694 84.3301 45.3806C85.1456 46.5788 84.9432 48.2084 83.8536 49.1761L66.5411 64.7467C65.0985 65.9165 63.3679 66.6903 61.5337 66.9847L34.7214 70.8496L34.7047 70.8522L34.6861 70.8551C33.8738 70.9837 33.0279 70.9294 32.1716 70.6944L13.0889 63.468V40.028H15.2216C17.037 40.028 18.8402 40.2376 20.5962 40.6446C20.6615 40.6598 20.7267 40.6754 20.7918 40.691C21.0075 40.7431 21.2228 40.7966 21.437 40.8546C21.4464 40.8572 21.4557 40.8598 21.4651 40.8624C21.4744 40.8651 21.4837 40.8677 21.4931 40.8703C21.7078 40.929 21.9217 40.9909 22.1349 41.0555C22.1476 41.0594 22.1605 41.0632 22.1733 41.0671C22.1987 41.0748 22.2242 41.0825 22.2495 41.0903C22.4763 41.1604 22.7021 41.2336 22.9267 41.3103L22.9961 41.3345C23.4639 41.496 23.9271 41.6722 24.3846 41.8629C24.4095 41.8733 24.4344 41.8837 24.4593 41.8943C24.6873 41.9901 24.9139 42.0892 25.1391 42.1922L25.1571 42.2007C25.3748 42.3007 25.5908 42.4044 25.8056 42.511L25.834 42.5249L25.8815 42.5483C26.0912 42.6532 26.2993 42.7618 26.5062 42.873C26.5288 42.8852 26.5515 42.8976 26.5741 42.9099L26.5742 42.91L26.6232 42.9366C26.8319 43.0504 27.0395 43.1664 27.245 43.2866C30.211 45.0216 33.4398 46.1453 36.8418 46.6268C36.8526 46.6283 36.8632 46.6297 36.8739 46.6309L50.8385 48.2386C50.9157 48.2497 50.9925 48.2625 51.0687 48.2768C53.1245 48.6629 54.7471 50.182 55.2899 52.1602C55.3704 52.4532 55.4271 52.7564 55.4581 53.0673L55.5135 53.625L29.3413 51.332C28.6561 51.2721 28.051 51.7792 27.9909 52.4648C27.9307 53.1505 28.4381 53.7551 29.1237 53.8152L56.7937 56.2395C56.8003 56.24 56.8068 56.2398 56.8133 56.2403C56.8164 56.2406 56.8196 56.241 56.8227 56.2414C56.826 56.2417 56.8293 56.2421 56.8327 56.2424L62.051 56.5352C62.0655 56.5361 62.0799 56.5366 62.0943 56.5369L62.1207 56.5371C62.1361 56.5371 62.1513 56.5356 62.1666 56.5341H62.1666C62.1758 56.5331 62.1851 56.5322 62.1944 56.5316L62.2128 56.5306L62.2129 56.5306C62.2345 56.5294 62.2561 56.5282 62.2776 56.5255C62.3144 56.5208 62.3504 56.5129 62.3866 56.5049L62.3876 56.5047C62.3959 56.5029 62.4042 56.5012 62.4125 56.4995C62.4303 56.4959 62.4481 56.4923 62.4656 56.4871C62.5043 56.4761 62.5415 56.4611 62.5791 56.4461L62.5825 56.4447C62.5906 56.4414 62.5987 56.4385 62.6068 56.4356L62.607 56.4355C62.6131 56.4334 62.6192 56.4312 62.6252 56.4289C62.632 56.4263 62.6387 56.4235 62.6453 56.4204C62.7035 56.3935 62.7601 56.3625 62.814 56.3263L67.0372 53.5ZM47.4 45.3333V30.5156H37.6V44.2043C37.6347 44.2088 37.6673 44.2129 37.6976 44.2164L38.6798 44.3294L47.4 45.3333ZM26.3999 14.2754L21.0999 19.2297V11.0156H26.3999V14.2754Z" fill="url(#paint0_linear)"/>
<path d="M71.7768 6.31211H69.8645V4.39985C69.8645 3.8519 69.4284 3.41577 68.8804 3.41577C68.3325 3.41577 67.8963 3.8519 67.8963 4.39985V6.31211H65.9841C65.4361 6.31211 65 6.74824 65 7.29619C65 7.84415 65.4361 8.28028 65.9841 8.28028H67.8963V10.1925C67.8963 10.7405 68.3325 11.1766 68.8804 11.1766C69.4284 11.1766 69.8645 10.7405 69.8645 10.1925V8.28028H71.7768C72.3247 8.28028 72.7608 7.84415 72.7608 7.29619C72.7608 6.74824 72.3247 6.31211 71.7768 6.31211Z" fill="url(#paint1_linear)"/>
<path d="M81.7768 16.3119H79.8645V14.3996C79.8645 13.8517 79.4284 13.4155 78.8804 13.4155C78.3325 13.4155 77.8963 13.8517 77.8963 14.3996V16.3119H75.9841C75.4361 16.3119 75 16.748 75 17.296C75 17.8439 75.4361 18.28 75.9841 18.28H77.8963V20.1923C77.8963 20.7402 78.3325 21.1764 78.8804 21.1764C79.4284 21.1764 79.8645 20.7402 79.8645 20.1923V18.28H81.7768C82.3247 18.28 82.7608 17.8439 82.7608 17.296C82.7608 16.748 82.3247 16.3119 81.7768 16.3119Z" fill="url(#paint2_linear)"/>
<defs>
<linearGradient id="paint0_linear" x1="2.04587e-07" y1="43.382" x2="87.3229" y2="42.9788" gradientUnits="userSpaceOnUse">
<stop stop-color="#BC913E"/>
<stop offset="0.523276" stop-color="#ECEBA2"/>
<stop offset="1" stop-color="#BC913E"/>
</linearGradient>
<linearGradient id="paint1_linear" x1="65" y1="8.00172" x2="72.7611" y2="7.97159" gradientUnits="userSpaceOnUse">
<stop stop-color="#BC913E"/>
<stop offset="0.523276" stop-color="#ECEBA2"/>
<stop offset="1" stop-color="#BC913E"/>
</linearGradient>
<linearGradient id="paint2_linear" x1="75" y1="18.0015" x2="82.7611" y2="17.9713" gradientUnits="userSpaceOnUse">
<stop stop-color="#BC913E"/>
<stop offset="0.523276" stop-color="#ECEBA2"/>
<stop offset="1" stop-color="#BC913E"/>
</linearGradient>
</defs>
</svg>
